{
  "accessors": [
    {
      "bufferView": 1,
      "componentType": 5126,
      "count": 6746,
      "max": [
        0.95346999168396,
        0.9477999806404114,
        0.9613900184631348
      ],
      "min": [
        -0.95346999168396,
        -0.9477999806404114,
        -0.9613900184631348
      ],
      "type": "VEC3"
    },
    {
      "bufferView": 1,
      "byteOffset": 80952,
      "componentType": 5126,
      "count": 6746,
      "max": [
        1.0,
        1.0,
        1.0
      ],
      "min": [
        -1.0,
        -1.0,
        -1.0
      ],
      "type": "VEC3"
    },
    {
      "bufferView": 0,
      "componentType": 5125,
      "count": 40464,
      "type": "SCALAR"
    }
  ],
  "asset": {
    "extras": {
      "author": "Nekupaska (https://sketchfab.com/nekubaba213)",
      "license": "CC-BY-NC-4.0 (http://creativecommons.org/licenses/by-nc/4.0/)",
      "source": "https://sketchfab.com/3d-models/gyro-zeppelis-steel-ball-jjba-steel-ball-run-dfb1780502da492faa383d5126df495f",
      "title": "Gyro Zeppeli's Steel Ball - JJBA: Steel Ball Run"
    },
    "generator": "Sketchfab-12.66.0",
    "version": "2.0"
  },
  "bufferViews": [
    {
      "buffer": 0,
      "byteLength": 161856,
      "name": "floatBufferViews",
      "target": 34963
    },
    {
      "buffer": 0,
      "byteLength": 161904,
      "byteOffset": 161856,
      "byteStride": 12,
      "name": "floatBufferViews",
      "target": 34962
    }
  ],
  "buffers": [
    {
      "byteLength": 323760,
      "uri": "scene.bin"
    }
  ],
  "extensionsRequired": [
    "KHR_materials_pbrSpecularGlossiness"
  ],
  "extensionsUsed": [
    "KHR_materials_pbrSpecularGlossiness"
  ],
  "materials": [
    {
      "doubleSided": true,
      "extensions": {
        "KHR_materials_pbrSpecularGlossiness": {
          "diffuseFactor": [
            0.0034776211488435327,
            0.015876293507004053,
            0.0,
            1.0
          ],
          "glossinessFactor": 0.98,
          "specularFactor": [
            0.035401869168127466,
            0.33108273651581677,
            0.0
          ]
        }
      },
      "name": "Material"
    }
  ],
  "meshes": [
    {
      "name": "Sphere.005_0",
      "primitives": [
        {
          "attributes": {
            "NORMAL": 1,
            "POSITION": 0
          },
          "indices": 2,
          "material": 0,
          "mode": 4
        }
      ]
    }
  ],
  "nodes": [
    {
      "children": [
        1
      ],
      "matrix": [
        1.0,
        0.0,
        0.0,
        0.0,
        0.0,
        1.0,
        0.0,
        0.0,
        0.0,
        0.0,
        1.0,
        0.0,
        0.0,
        -1.3234889800848443e-23,
        1.7881393432617188e-07,
        1.0
      ],
      "name": "Sketchfab_model"
    },
    {
      "children": [
        2,
        4
      ],
      "name": "Root"
    },
    {
      "children": [
        3
      ],
      "name": "Sphere.005"
    },
    {
      "mesh": 0,
      "name": "Sphere.005_0"
    },
    {
      "children": [
        5
      ],
      "matrix": [
        -0.29086000000000006,
        0.9551700000000001,
        -0.05519000000000001,
        0.0,
        -0.7711,
        -0.19988000000000003,
        0.6045200000000001,
        0.0,
        0.5663900000000001,
        0.21839000000000003,
        0.7946700000000001,
        0.0,
        8.231509999999998,
        7.34523,
        5.903860000000001,
        1.0
      ],
      "name": "Lamp"
    },
    {
      "name": "Lamp"
    }
  ],
  "scene": 0,
  "scenes": [
    {
      "name": "Sketchfab_Scene",
      "nodes": [
        0
      ]
    }
  ]
}
